<svg width="40" height="40" viewBox="0 0 40 40" fill="none" xmlns="http://www.w3.org/2000/svg">
<path fill-rule="evenodd" clip-rule="evenodd" d="M23.5136 5.13431V5.13432L23.6568 6.56654C23.8202 8.20008 23.9019 9.01685 24.4547 9.24583C25.0075 9.47482 25.6428 8.95503 26.9134 7.91545L28.0274 7.00402C28.6931 6.4593 29.026 6.18695 29.4108 6.20614C29.7957 6.22534 30.0998 6.52946 30.708 7.13772L32.8624 9.29207C33.4706 9.90033 33.7748 10.2045 33.794 10.5893C33.8132 10.9741 33.5408 11.307 32.9961 11.9728L32.0846 13.0868C31.045 14.3574 30.5253 14.9927 30.7542 15.5455C30.9832 16.0983 31.8 16.18 33.4335 16.3433L34.8658 16.4866C35.7218 16.5722 36.1497 16.615 36.4083 16.9006C36.6668 17.1863 36.6668 17.6164 36.6668 18.4766V21.5234C36.6668 22.3836 36.6668 22.8137 36.4083 23.0993C36.1497 23.385 35.7218 23.4278 34.8659 23.5134H34.8658L33.4342 23.6566C31.8006 23.82 30.9838 23.9016 30.7549 24.4544C30.5259 25.0073 31.0457 25.6426 32.0852 26.9131L32.9962 28.0265C33.5409 28.6923 33.8132 29.0251 33.794 29.41C33.7748 29.7948 33.4707 30.0989 32.8625 30.7072L30.7081 32.8615C30.0999 33.4698 29.7957 33.7739 29.4109 33.7931C29.0261 33.8123 28.6932 33.54 28.0274 32.9952L26.9134 32.0838C25.6429 31.0442 25.0076 30.5244 24.4547 30.7534C23.9019 30.9824 23.8203 31.7992 23.6569 33.4327L23.5136 34.8657V34.8657C23.428 35.7216 23.3852 36.1496 23.0995 36.4081C22.8138 36.6667 22.3837 36.6667 21.5235 36.6667H18.4768C17.6166 36.6667 17.1865 36.6667 16.9008 36.4081C16.6151 36.1496 16.5723 35.7216 16.4867 34.8657L16.3435 33.4334C16.1802 31.7998 16.0985 30.9831 15.5457 30.7541C14.9928 30.5251 14.3576 31.0449 13.087 32.0845L11.9729 32.996C11.3071 33.5407 10.9742 33.8131 10.5894 33.7939C10.2046 33.7747 9.90042 33.4706 9.29218 32.8623L9.29217 32.8623L7.13781 30.7079C6.52956 30.0997 6.22543 29.7956 6.20624 29.4107C6.18705 29.0259 6.4594 28.693 7.00411 28.0273L7.91561 26.9132C8.95519 25.6426 9.47498 25.0073 9.24599 24.4545C9.01701 23.9017 8.20024 23.82 6.5667 23.6567L5.13449 23.5134H5.13447C4.27855 23.4278 3.85059 23.385 3.59204 23.0993C3.3335 22.8137 3.3335 22.3836 3.3335 21.5234V18.4766C3.3335 17.6164 3.3335 17.1863 3.59204 16.9006C3.85059 16.615 4.27856 16.5722 5.13449 16.4866L6.56733 16.3433C8.20087 16.1799 9.01764 16.0983 9.24662 15.5454C9.4756 14.9926 8.95581 14.3573 7.91624 13.0867L7.00419 11.972C6.45948 11.3062 6.18712 10.9734 6.20631 10.5885C6.22551 10.2037 6.52964 9.89957 7.13789 9.29132L9.29224 7.13696C9.9005 6.52871 10.2046 6.22458 10.5895 6.20539C10.9743 6.18619 11.3072 6.45855 11.9729 7.00326L13.087 7.9148C14.3576 8.95437 14.9929 9.47416 15.5457 9.24518C16.0985 9.0162 16.1802 8.19943 16.3436 6.56589L16.4867 5.13433C16.5723 4.27839 16.6151 3.85043 16.9008 3.59188C17.1865 3.33333 17.6166 3.33333 18.4768 3.33333H21.5235C22.3837 3.33333 22.8138 3.33333 23.0995 3.59188C23.3852 3.85043 23.428 4.27839 23.5136 5.13431ZM20.0002 26.6667C23.6821 26.6667 26.6668 23.6819 26.6668 20C26.6668 16.3181 23.6821 13.3333 20.0002 13.3333C16.3183 13.3333 13.3335 16.3181 13.3335 20C13.3335 23.6819 16.3183 26.6667 20.0002 26.6667Z" fill="#474747"/>
</svg>
