<svg width="215" height="105" viewBox="0 0 215 105" fill="none" xmlns="http://www.w3.org/2000/svg">
<g clip-path="url(#clip0_497_4975)">
<mask id="mask0_497_4975" style="mask-type:luminance" maskUnits="userSpaceOnUse" x="0" y="0" width="215" height="105">
<path d="M215 0H0V105H215V0Z" fill="white"/>
</mask>
<g mask="url(#mask0_497_4975)">
<path d="M5.81079 96.2503C10.6531 87.5003 30.2162 71.167 69.7297 75.8336C119.122 81.667 161.25 83.125 203.378 71.4583" stroke="#32439F" stroke-width="5"/>
<path fill-rule="evenodd" clip-rule="evenodd" d="M198.659 66.1092L198.424 63.0437L195.629 62.6421L193.961 64.9291L195.98 67.2402L198.659 66.1092Z" fill="#32439F"/>
<path d="M176.548 5.83333L168.513 9.22672L189.922 60.3062L193.961 64.9291L195.629 62.6421L198.424 63.0437L197.956 56.9129L176.548 5.83333Z" fill="#333333"/>
<path d="M23.4083 70V44.5454H26.4788V67.2656H38.2656V70H23.4083ZM50.5971 70.3978C48.7646 70.3978 47.1841 69.9918 45.8551 69.1798C44.5343 68.3594 43.5151 67.216 42.7969 65.7493C42.0871 64.2743 41.7321 62.5593 41.7321 60.6037C41.7321 58.6483 42.0871 56.9246 42.7969 55.4333C43.5151 53.9335 44.5137 52.7651 45.7933 51.9283C47.0806 51.0831 48.583 50.6605 50.2998 50.6605C51.2903 50.6605 52.2685 50.8261 53.234 51.1578C54.1998 51.4891 55.0789 52.0278 55.8712 52.7736C56.6635 53.5109 57.2952 54.4886 57.7656 55.7066C58.2359 56.9246 58.4713 58.4243 58.4713 60.2058V61.4489H43.8121V58.9135H55.4999C55.4999 57.836 55.2852 56.875 54.8561 56.0298C54.4351 55.1848 53.8325 54.5178 53.0483 54.0286C52.2726 53.5398 51.3562 53.2954 50.2998 53.2954C49.1359 53.2954 48.1289 53.5856 47.2788 54.1654C46.4371 54.7371 45.7889 55.4829 45.3351 56.4028C44.881 57.3224 44.654 58.3085 44.654 59.3609V61.0511C44.654 62.4928 44.9016 63.7152 45.397 64.7176C45.9005 65.7119 46.5981 66.4703 47.4894 66.9923C48.3808 67.506 49.4166 67.7629 50.5971 67.7629C51.3647 67.7629 52.0579 67.655 52.677 67.4398C53.3043 67.216 53.845 66.8844 54.2988 66.4452C54.7529 65.9978 55.1036 65.4427 55.3512 64.7798L58.1741 65.5754C57.8771 66.5365 57.3777 67.3817 56.676 68.1109C55.9744 68.8316 55.1077 69.3951 54.076 69.8011C53.0443 70.1989 51.8847 70.3978 50.5971 70.3978ZM68.5124 70.4474C67.3072 70.4474 66.2136 70.2196 65.2313 69.7638C64.249 69.2997 63.4692 68.6327 62.8913 67.7629C62.3134 66.8844 62.0246 65.8239 62.0246 64.5808C62.0246 63.4871 62.2393 62.6007 62.6684 61.9211C63.0976 61.2334 63.6714 60.695 64.3893 60.3053C65.1075 59.9159 65.8998 59.626 66.7665 59.4353C67.6416 59.2366 68.5205 59.0791 69.4037 58.963C70.5592 58.814 71.4962 58.702 72.2141 58.6276C72.9405 58.5445 73.4687 58.408 73.799 58.2173C74.1372 58.0268 74.3066 57.6952 74.3066 57.223V57.1235C74.3066 55.8973 73.9722 54.9445 73.3037 54.2649C72.6433 53.5856 71.6406 53.2458 70.2951 53.2458C68.9002 53.2458 67.8066 53.5523 67.014 54.1654C66.2217 54.7785 65.6648 55.4333 65.3429 56.1292L62.5694 55.1349C63.0647 53.975 63.7248 53.0717 64.5503 52.4253C65.3841 51.7708 66.2921 51.315 67.2741 51.0583C68.2645 50.7932 69.2387 50.6605 70.196 50.6605C70.8068 50.6605 71.5084 50.7351 72.3007 50.8842C73.1014 51.025 73.8731 51.3193 74.616 51.7668C75.3671 52.2142 75.9903 52.8894 76.4857 53.7927C76.9808 54.6957 77.2286 55.9055 77.2286 57.4219V70H74.3066V67.4147H74.1579C73.96 67.8291 73.6297 68.2725 73.1674 68.7447C72.7052 69.2169 72.0904 69.6188 71.3228 69.9504C70.5552 70.2818 69.6182 70.4474 68.5124 70.4474ZM68.9581 67.8125C70.1135 67.8125 71.0874 67.5847 71.88 67.1288C72.6805 66.6733 73.283 66.085 73.6875 65.364C74.1003 64.6433 74.3066 63.8849 74.3066 63.0895V60.4048C74.1828 60.5541 73.9103 60.6906 73.4893 60.8151C73.0768 60.9309 72.5979 61.0345 72.0532 61.1258C71.5168 61.2086 70.9927 61.2833 70.4808 61.3495C69.9773 61.4075 69.5688 61.4571 69.255 61.4985C68.4958 61.598 67.786 61.7595 67.1256 61.9833C66.4736 62.1988 65.9451 62.526 65.5407 62.9653C65.1447 63.3961 64.9466 63.9844 64.9466 64.7302C64.9466 65.7493 65.3222 66.5198 66.0733 67.0419C66.8325 67.5555 67.7941 67.8125 68.9581 67.8125ZM82.5615 70V50.909H85.3843V53.7927H85.5825C85.9291 52.848 86.5564 52.0815 87.4643 51.4932C88.3723 50.9049 89.3958 50.6109 90.535 50.6109C90.7495 50.6109 91.0179 50.615 91.3398 50.6231C91.6618 50.6316 91.9052 50.6438 92.0703 50.6605V53.6433C91.9712 53.6185 91.7443 53.5812 91.3892 53.5316C91.0426 53.4736 90.6754 53.4447 90.2872 53.4447C89.363 53.4447 88.5376 53.6393 87.8112 54.0286C87.093 54.4098 86.5236 54.9401 86.1026 55.6197C85.69 56.2908 85.4834 57.0573 85.4834 57.9192V70H82.5615ZM98.4558 58.5156V70H95.5338V50.909H98.3567V53.8921H98.6042C99.0499 52.9226 99.7269 52.1436 100.635 51.5553C101.543 50.9588 102.715 50.6605 104.151 50.6605C105.439 50.6605 106.565 50.9256 107.531 51.4558C108.497 51.9779 109.248 52.7736 109.784 53.8423C110.321 54.903 110.589 56.2453 110.589 57.8693V70H107.667V58.0682C107.667 56.5685 107.279 55.4 106.503 54.5633C105.727 53.718 104.663 53.2954 103.309 53.2954C102.376 53.2954 101.543 53.4984 100.808 53.9044C100.082 54.3104 99.5081 54.903 99.0871 55.6818C98.6661 56.4608 98.4558 57.4053 98.4558 58.5156ZM116.325 70V44.5454H119.395V55.8807H132.915V44.5454H135.985V70H132.915V58.6151H119.395V70H116.325ZM153.721 62.1947V50.909H156.643V70H153.721V66.7683H153.523C153.077 67.7378 152.384 68.5624 151.443 69.242C150.502 69.9131 149.314 70.2485 147.878 70.2485C146.689 70.2485 145.632 69.9875 144.708 69.4657C143.784 68.9351 143.057 68.1398 142.529 67.0793C142.001 66.0103 141.736 64.664 141.736 63.0397V50.909H144.658V62.841C144.658 64.2329 145.046 65.3433 145.822 66.1719C146.606 67.0005 147.605 67.4147 148.818 67.4147C149.545 67.4147 150.284 67.2283 151.035 66.8555C151.794 66.4825 152.429 65.9108 152.941 65.1403C153.461 64.3697 153.721 63.3879 153.721 62.1947ZM162.391 70V44.5454H165.313V53.9417H165.561C165.775 53.6104 166.072 53.1878 166.452 52.6741C166.84 52.152 167.393 51.688 168.111 51.282C168.837 50.8675 169.82 50.6605 171.058 50.6605C172.659 50.6605 174.07 51.0624 175.292 51.8662C176.514 52.6698 177.467 53.8093 178.152 55.284C178.837 56.7589 179.18 58.499 179.18 60.5042C179.18 62.526 178.837 64.2787 178.152 65.7618C177.467 67.2368 176.518 68.3801 175.305 69.1921C174.091 69.9959 172.692 70.3978 171.107 70.3978C169.886 70.3978 168.908 70.1948 168.173 69.7888C167.439 69.3744 166.873 68.9063 166.477 68.3842C166.081 67.8539 165.775 67.4147 165.561 67.0667H165.214V70H162.391ZM165.264 60.4546C165.264 61.8963 165.474 63.1683 165.895 64.2702C166.316 65.364 166.931 66.2215 167.74 66.843C168.549 67.4561 169.539 67.7629 170.711 67.7629C171.933 67.7629 172.952 67.4398 173.769 66.7934C174.595 66.1386 175.214 65.2604 175.627 64.1585C176.047 63.0481 176.258 61.8135 176.258 60.4546C176.258 59.1121 176.052 57.9025 175.639 56.8254C175.234 55.7398 174.62 54.8823 173.794 54.2526C172.977 53.6145 171.949 53.2954 170.711 53.2954C169.523 53.2954 168.524 53.5978 167.715 54.2028C166.906 54.7995 166.295 55.6363 165.883 56.7134C165.47 57.7824 165.264 59.0293 165.264 60.4546Z" fill="#1E1E1E"/>
</g>
</g>
<defs>
<clipPath id="clip0_497_4975">
<rect width="215" height="105" fill="white"/>
</clipPath>
</defs>
</svg>
